<?xml version="1.0" encoding="UTF-8" standalone="no"?>
<svg
   xmlns:dc="http://purl.org/dc/elements/1.1/"
   xmlns:cc="http://creativecommons.org/ns#"
   xmlns:rdf="http://www.w3.org/1999/02/22-rdf-syntax-ns#"
   xmlns:svg="http://www.w3.org/2000/svg"
   xmlns="http://www.w3.org/2000/svg"
   viewBox="0 0 3333.3333 2133.3333"
   height="2133.3333"
   width="3333.3333"
   xml:space="preserve"
   id="svg2"
   version="1.1"><metadata
     id="metadata8"><rdf:RDF><cc:Work
         rdf:about=""><dc:format>image/svg+xml</dc:format><dc:type
           rdf:resource="http://purl.org/dc/dcmitype/StillImage" /></cc:Work></rdf:RDF></metadata><defs
     id="defs6" /><g
     transform="matrix(1.3333333,0,0,-1.3333333,0,2133.3333)"
     id="g10"><g
       transform="scale(0.1)"
       id="g12"><g
         transform="scale(1.53374)"
         id="g14"><path
           id="path16"
           style="fill:#5eb2e6;fill-opacity:1;fill-rule:nonzero;stroke:none"
           d="M 0.0254688,10432 H 16300 V 0 H 0.0254688 v 10432" /></g><g
         transform="scale(1.53374)"
         id="g18"><path
           id="path20"
           style="fill:#d6f2f9;fill-opacity:1;fill-rule:nonzero;stroke:none"
           d="M 16300,5888.59 V 0.0662188 H 0.0254688 V 3531.36 C 436.44,3807.42 1554.65,4337.23 2998.33,3699.77 c 1872.32,-826.73 1696.03,1999.96 3878.38,680.83 2182.31,-1319.13 5191.39,-449.85 5835.79,686.92 644.4,1136.77 364.7,1854.07 -109.4,2528.84 -474.2,674.76 -1407.3,589.66 -1753.8,136.78 -346.5,-452.88 -960.48,-419.45 -1091.14,-82.06 -130.73,337.37 215.75,960.46 823.64,1045.56 608,85.12 1386.1,-200.6 1665.6,-389.05 279.7,-188.43 383.1,24.33 161.1,240.13 -221.8,215.8 -559.2,191.49 -741.6,510.63 -182.3,319.14 255.3,595.73 808.5,352.59 553.2,-243.17 647.5,-884.51 775.1,-1711.23 127.7,-826.73 580.6,-720.36 699.1,-516.72 118.5,203.66 -36.5,446.82 -194.6,662.61 -158,215.8 -334.3,848.01 340.5,908.8 674.7,60.8 1063.8,-844.97 735.5,-2413.33 -328.2,-1568.38 729.6,-1604.86 1380,-547.11 23.5,38.19 53.7,69.18 89,94.63 v 0" /></g><g
         transform="scale(1.53374)"
         id="g22"><path
           id="path24"
           style="fill:#beeaf6;fill-opacity:1;fill-rule:nonzero;stroke:none"
           d="M 16300,5641.26 V 0.0662188 H 0.0254688 V 3281.39 C 137.052,3096.15 1093.54,1849.01 2195.84,1590.29 c 1191.48,-279.64 2194.5,389.05 2863.18,1161.09 668.69,772.03 1063.83,1264.43 1914.9,802.41 851.06,-461.94 1051.61,-790.22 1714.24,-358.66 662.63,431.62 851.06,376.92 1112.44,-66.83 261.4,-443.75 346.5,-395.12 1574.5,595.73 1227.9,990.86 1908.7,461.99 2693,-66.9 731.8,-493.56 1238.5,-184.12 2231.9,1984.13" /></g><g
         transform="scale(1.53374)"
         id="g26"><path
           id="path28"
           style="fill:#86d8f7;fill-opacity:1;fill-rule:nonzero;stroke:none"
           d="M 16300,5214.91 V 0.0662188 H 0.0254688 V 1777.81 C 621.343,1429.31 1551.04,1024.62 2548.43,1000.69 c 1768.98,-42.576 2522.77,887.5 3167.14,1616.96 644.36,729.52 1136.75,571.41 1531.87,231 395.17,-340.41 686.94,-498.45 1021.29,-249.19 334.35,249.19 626.12,431.56 990.84,18.19 364.8,-413.37 613.99,-462.01 1386.03,267.52 772,729.39 1604.9,1385.96 2474.1,650.43 869.3,-735.59 1829.8,-1908.79 2838.9,984.79 113.9,326.44 228.6,552.68 341.4,694.52 v 0" /></g><g
         transform="scale(1.53374)"
         id="g30"><path
           id="path32"
           style="fill:#5eb2e6;fill-opacity:1;fill-rule:nonzero;stroke:none"
           d="M 16300,4594.31 V 0.0662188 H 0.0254688 V 1425.73 C 1061.63,982.304 2652.7,455.552 4171.52,483.914 6773.3,532.554 7648.68,1231.69 8068.11,1821.3 c 419.5,589.67 717.33,747.71 765.97,303.96 48.64,-443.75 285.71,-1075.93 1841.92,188.43 1556.2,1264.42 1665.6,1465.04 2656.5,559.28 990.9,-905.76 1969.5,-863.18 2711.2,1167.17 92.8,254.02 178.3,437.22 256.3,554.17" /></g><g
         transform="scale(1.53374)"
         id="g34"><path
           id="path36"
           style="fill:#446bbd;fill-opacity:1;fill-rule:nonzero;stroke:none"
           d="M 10158.4,0 H 0.0382031 V 1096.86 C 1093.31,675.602 2503.28,292.748 4013.49,295.486 7362.97,301.616 7794.6,1377.55 9533.22,325.936 9738.53,201.664 9947.11,92.7139 10158.5,0 Z M 16300,2310.69 V 0 h -2629.3 c 594.5,264.19 1181.2,734.478 1680.1,1213.44 498.7,478.96 654.6,773.01 949.1,1097.25 h 0.1" /></g><g
         transform="scale(1.53374)"
         id="g38"><path
           id="path40"
           style="fill:#3960b6;fill-opacity:1;fill-rule:nonzero;stroke:none"
           d="M 3593.67,0 H 0.0254688 V 400.654 C 503.937,423.018 1806.18,431.624 3350.88,58.4202 3434.13,38.3381 3514.89,18.8443 3593.67,0 Z M 9584.53,0 H 7234.2 c 57.9,24.2539 116.9,49.6819 177.41,76.6762 C 8314.5,479.286 8973.67,338.976 9584.53,0 Z M 16300,1280.01 V 0 h -1697 c 214.7,145.852 430,307.026 644.4,483.98 431.6,356.318 776.9,612.42 1052.6,796.03 v 0" /></g><g
         transform="scale(1.53374)"
         id="g42"><path
           id="path44"
           style="fill:#2e54ad;fill-opacity:1;fill-rule:nonzero;stroke:none"
           d="M 2527.56,0 H 0 V 53.464 C 721.509,176.17 1603.45,219.138 2511.97,3.71589 L 2527.56,0 Z M 8714.63,0 H 7499.76 C 7915.8,99.4962 8330.8,131.704 8714.63,0 Z M 16300,337.932 V 0 h -1130 c 419.5,203.816 798,303.572 1130,337.932 v 0" /></g><g
         transform="scale(1.53374)"
         id="g46"><path
           id="path48"
           style="fill:#4d9fdd;fill-opacity:1;fill-rule:nonzero;stroke:none"
           d="M 16300,3545.25 V 3126.6 C 15720.4,1900.97 14583.6,456.008 13108.6,0.0662188 H 10919.5 C 9246.66,392.048 9411.95,1394.63 9952.65,1219.57 c 638.25,-206.69 1854.05,-705.206 2522.75,455.87 668.7,1161.09 1282.6,-212.74 2534.9,431.63 598.5,307.94 1016.3,901.91 1289.7,1438.18 v 0" /></g><path
         id="path50"
         style="fill:#60baeb;fill-opacity:1;fill-rule:nonzero;stroke:none"
         d="m 4132.46,1264.5 c 0,0 1612.97,-167.9 2890.29,755.2 1277.33,923 1743.52,1771.4 2498.73,1510.4 755.22,-261.1 867.12,-428.9 1519.72,-37.3 652.6,391.5 1432,-240.1 270.4,-1230.7 C 10150.1,1271.5 6808.33,583.801 4132.46,1264.5" /><g
         transform="scale(1.09653)"
         id="g52"><path
           id="path54"
           style="fill:#fafdfd;fill-opacity:1;fill-rule:nonzero;stroke:none"
           d="m 16300,11751.9 c 0,0 -1041.6,420.9 -1709.1,102 -1412.2,-674.6 -390.5,-1858.8 455,-799.2 335.8,420.8 752.4,646.2 1254.1,697.2" /></g><g
         transform="scale(1.05406)"
         id="g56"><path
           id="path58"
           style="fill:#e4f6fa;fill-opacity:1;fill-rule:nonzero;stroke:none"
           d="m 14606.2,11480.2 c 0,0 90.6,451.1 559.4,687.7 468.8,236.6 1134.4,115 1134.4,115 0,0 -1192.9,12.9 -1693.8,-802.7" /></g><g
         transform="scale(1.48894)"
         id="g60"><path
           id="path62"
           style="fill:#ffffff;fill-opacity:1;fill-rule:nonzero;stroke:none"
           d="m 15016.3,5719.41 c 0,0 75.2,-535.4 547.9,-654.37 472.8,-118.98 735.8,269.27 735.8,269.27 0,0 -78.2,-425.81 -541.7,-475.89 -463.4,-50.13 -763.9,472.74 -742,860.99 z m -1925.8,2207.28 c 0,0 557.4,-716.99 519.8,-1596.79 -37.6,-879.78 -353.8,-1174.07 -353.8,-1174.07 0,0 475.9,272.37 526,973.71 50,701.31 -203.6,1386.99 -692,1797.15" /></g><g
         transform="scale(1.3851)"
         id="g64"><path
           id="path66"
           style="fill:#86d8f7;fill-opacity:1;fill-rule:nonzero;stroke:none"
           d="m 16300,1968.01 c 0,0 -430.8,-137.97 -1070.3,37.04 -639.5,175 -1110.6,168.29 -1114,-218.76 -3.4,-387.04 976,-430.8 2184.3,181.72" /></g><g
         transform="scale(1.33034)"
         id="g68"><path
           id="path70"
           style="fill:#ffffff;fill-opacity:1;fill-rule:nonzero;stroke:none"
           d="m 14800.2,1766.99 c 0,0 290.8,-157.7 762.2,-106.88 471.3,50.81 737.6,185.74 737.6,185.74 0,0 -827,-250.54 -1499.8,-78.86" /></g><g
         transform="scale(1.29559)"
         id="g72"><path
           id="path74"
           style="fill:#75c9f1;fill-opacity:1;fill-rule:nonzero;stroke:none"
           d="m 13194.8,3021.56 c 0,0 708.8,651.29 1155,766.37 446.2,115.16 719.6,32.42 1155,-381.37 435.4,-413.79 795.2,-514.52 795.2,-514.52 0,0 -449.8,57.58 -680.1,208.71 -230.3,151.05 -636.8,-97.17 -931.9,161.86 -295.1,259.11 -672.8,259.11 -1493.2,-241.05" /></g><path
         id="path76"
         style="fill:#ffffff;fill-opacity:1;fill-rule:nonzero;stroke:none"
         d="m 16095.1,3015 c 0,0 -811.1,-629.3 -1533.7,-771.5 -722.6,-142.2 -927.7,216.8 -927.7,216.8 0,0 30.3,-335.7 517.5,-408 487.1,-72.2 1149.1,221.5 1943.9,962.7" /><g
         transform="scale(1.09711)"
         id="g78"><path
           id="path80"
           style="fill:#86d8f7;fill-opacity:1;fill-rule:nonzero;stroke:none"
           d="m 16300,1205.62 c 0,0 -662.9,-195.42 -1291.8,-21.24 -628.9,174.28 -1159.9,373.99 -1266.2,89.24 -106.3,-284.659 715.1,-1012.569 2558,-68" /></g><path
         id="path82"
         style="fill:#beeaf6;fill-opacity:1;fill-rule:nonzero;stroke:none"
         d="m 6685.37,1171.3 c 0,0 1356.59,-23.3 2736.49,414.9 1379.84,438.2 2079.14,1351.9 2079.14,1351.9 0,0 -1780.79,-1547.7 -4815.63,-1766.8" /><path
         id="path84"
         style="fill:#beeaf6;fill-opacity:1;fill-rule:nonzero;stroke:none"
         d="m 7435.93,2108.3 c 0,0 689.94,503.5 1090.86,862.4 1080.73,967.7 1971.11,-218.6 -1090.86,-862.4" /><path
         id="path86"
         style="fill:#beeaf6;fill-opacity:1;fill-rule:nonzero;stroke:none"
         d="m 9034.9,4054.5 c 0,0 578.07,666.7 1195.8,552.5 617.6,-114.3 857.7,-571.1 857.7,-571.1 0,0 -813.4,841.5 -2053.5,18.6" /><g
         transform="scale(1.05235)"
         id="g88"><path
           id="path90"
           style="fill:#beeaf6;fill-opacity:1;fill-rule:nonzero;stroke:none"
           d="m 16300,4679.05 c 0,0 -505,-403.09 -987.8,-855.04 -482.9,-451.84 -801.8,-628.97 -1178.3,-615.76 -376.6,13.4 -576,261.41 -576,261.41 0,0 40,-287.92 456.4,-407.46 416.4,-119.64 881.5,172.66 1289,584.69 407.6,411.93 846.2,832.8 996.7,1032.16" /></g><path
         id="path92"
         style="fill:#fafdfd;fill-opacity:1;fill-rule:nonzero;stroke:none"
         d="m 7275.19,5977.5 c 0,0 745.88,876.44 1454.47,1034.92 708.6,158.53 1295.94,-242.37 1710.84,-526.79 414.9,-284.34 787.9,-461.49 787.9,-461.49 0,0 -503.5,88.57 -1114.2,391.62 -610.68,302.99 -1537.71,551.94 -2839.01,-438.26" /><path
         id="path94"
         style="fill:#fafdfd;fill-opacity:1;fill-rule:nonzero;stroke:none"
         d="m 888.496,4579 c 0,0 1398.534,-1613 3319.194,-1874.1 1920.64,-261 2950.9,1412.6 2955.56,1804.2 4.65,391.6 -666.64,596.7 -923.04,32.6 -256.39,-564.1 -228.42,-853.1 -517.45,-1076.9 -289.04,-223.7 -386.95,14 -191.14,284.4 195.78,270.4 433.54,918.4 -694.61,536.1 C 3708.86,3903 2729.91,3544.1 888.496,4579" /><path
         id="path96"
         style="fill:#beeaf6;fill-opacity:1;fill-rule:nonzero;stroke:none"
         d="m 2231.16,3823.8 c 0,0 862.43,-247.1 1696.89,-42 834.46,205.1 820.47,-270.4 363.62,-508.1 C 3834.81,3035.9 2627.4,3558 2231.16,3823.8 v 0" /><g
         transform="scale(1.38985)"
         id="g98"><path
           id="path100"
           style="fill:#fafdfd;fill-opacity:1;fill-rule:nonzero;stroke:none"
           d="m 16249.6,7966.96 c 0,0 50.4,1056.56 -305.2,1331.6 -355.5,275.04 -670.8,40.25 -580.3,-261.63 90.6,-301.87 600.5,-516.54 885.5,-1069.97" /></g><g
         transform="scale(1.38055)"
         id="g102"><path
           id="path104"
           style="fill:#e4f6fa;fill-opacity:1;fill-rule:nonzero;stroke:none"
           d="m 15700.6,9372.98 c 0,0 285.3,8.44 442.4,-300.53 157,-308.96 148.5,-619.63 148.5,-619.63 0,0 -81.8,689.43 -590.9,920.18 v -0.02" /></g><g
         transform="scale(1.21424)"
         id="g106"><path
           id="path108"
           style="fill:#fafdfd;fill-opacity:1;fill-rule:nonzero;stroke:none"
           d="m 16300,10921.7 c 0,0 -222.7,606.6 -717.9,813.9 -495.3,207.3 -673.8,-1.9 -528,-236.1 146,-234.2 641.2,-107.5 1245.9,-577.8 v 0" /></g><g
         transform="scale(1.18836)"
         id="g110"><path
           id="path112"
           style="fill:#d6f2f9;fill-opacity:1;fill-rule:nonzero;stroke:none"
           d="m 15521.4,11954 c 0,0 233.3,23.5 441.2,-92.2 208,-115.7 337.4,-306 337.4,-306 0,0 -245.2,276.6 -778.6,398.2" /></g><g
         transform="scale(1.20018)"
         id="g114"><path
           id="path116"
           style="fill:#e4f6fa;fill-opacity:1;fill-rule:nonzero;stroke:none"
           d="m 16300,8689.9 c 0,0 -272,668.08 -885.6,827.34 -431.2,111.88 -669.7,-117.49 -761.2,-328.5 -176.8,-407.33 285.4,-706.08 627.2,-386.19 334,312.66 811.8,29.13 1019.6,-112.65" /></g><g
         transform="scale(1.16463)"
         id="g118"><path
           id="path120"
           style="fill:#fafdfd;fill-opacity:1;fill-rule:nonzero;stroke:none"
           d="m 16300,9491.64 c -264.8,185.49 -608.7,322.1 -906.9,138.5 -298.9,-184.04 -260.4,-593.98 37.4,-422.75 117,67.24 243,189.88 295.7,224.17 133.7,87.11 315.1,119.65 573.8,60.08" /></g><g
         transform="scale(1.13423)"
         id="g122"><path
           id="path124"
           style="fill:#e4f6fa;fill-opacity:1;fill-rule:nonzero;stroke:none"
           d="m 15645.5,9614.46 c 0,0 101.8,228.09 293.9,280.51 192.1,52.4 360.6,-7.2 360.6,-7.2 0,0 -390.4,39.05 -654.5,-273.31" /></g><g
         transform="scale(1.2388)"
         id="g126"><path
           id="path128"
           style="fill:#86d8f7;fill-opacity:1;fill-rule:nonzero;stroke:none"
           d="m 15189.8,6117.84 c 0,0 173.2,413.95 112.9,794.02 -60.2,380.07 -22.6,699.94 319.9,745.1 342.4,45.16 677.4,-730.04 -432.8,-1539.12" /></g><g
         transform="scale(1.22249)"
         id="g130"><path
           id="path132"
           style="fill:#d6f2f9;fill-opacity:1;fill-rule:nonzero;stroke:none"
           d="m 15814.9,6752.45 c 0,0 34.5,248.64 -52.2,445.65 -86.9,197.01 -112.2,375.4 66.6,448.72 178.8,73.32 470.7,-298.21 -14.4,-894.37" /></g><g
         transform="scale(1.2041)"
         id="g134"><path
           id="path136"
           style="fill:#ffffff;fill-opacity:1;fill-rule:nonzero;stroke:none"
           d="m 16161.6,7676.37 c 0,0 117.1,-96.78 100.6,-266.17 -16.4,-169.38 -86.1,-269.07 -86.1,-269.07 0,0 123.9,266.16 -14.5,535.24" /></g><path
         id="path138"
         style="fill:#fafdfd;fill-opacity:1;fill-rule:nonzero;stroke:none"
         d="m 1434.18,3270.2 c 0,0 969.64,-857.8 2195.69,-1025.6 1226.05,-167.8 2139.75,251.8 2139.75,251.8 0,0 -2181.71,-1456 -4335.44,773.8 v 0" /><path
         id="path140"
         style="fill:#5eb2e6;fill-opacity:1;fill-rule:nonzero;stroke:none"
         d="m 10468.7,668.902 c 0,0 1104.8,438.198 2130.4,344.998 1025.6,-93.298 1515.1,-405.599 1515.1,-405.599 0,0 -1584.7,596.799 -3645.5,60.601" /><g
         transform="scale(1.45878)"
         id="g142"><path
           id="path144"
           style="fill:#ffffff;fill-opacity:1;fill-rule:nonzero;stroke:none"
           d="m 16300,2161.81 c 0,0 -651.9,-875.6 -1444.4,-1418.859 -792.5,-543.263 -1533.9,-613.597 -1533.9,-613.597 0,0 1198.2,187.28 2978.3,2032.456" /></g><g
         transform="scale(1.45106)"
         id="g146"><path
           id="path148"
           style="fill:#ffffff;fill-opacity:1;fill-rule:nonzero;stroke:none"
           d="m 14555.5,3866.43 c 0,0 420.8,-398.33 918.8,-398.33 498,0 825.7,533.26 825.7,533.26 0,0 -99.6,-391.92 -517.2,-613.62 -417.7,-221.63 -1008.8,86.77 -1227.3,478.69 v 0" /></g><path
         id="path150"
         style="fill:#d6f2f9;fill-opacity:1;fill-rule:nonzero;stroke:none"
         d="m 10962.1,6779.26 c 0,0 -1323.91,969.67 -2759.74,867.12 -1435.83,-102.55 -2209.67,-587.39 -2755.11,-657.34 -545.41,-69.91 -606.02,321.66 -275.03,536.13 330.99,214.42 815.8,191.12 1258.69,167.78 442.86,-23.27 172.48,135.21 -284.39,177.18 -456.85,41.96 -1501.09,-79.24 -2167.71,-550.1 -666.63,-470.81 -1044.26,-1002.26 -1752.85,-1002.26 -708.58,0 -731.89,755.2 -9.31,969.63 722.58,214.43 1198.08,233.09 1715.55,498.84 517.44,265.68 37.27,344.94 -433.56,219.07 -470.84,-125.85 -1370.56,-363.58 -1678.24,-74.56 -307.67,289.01 172.48,899.71 1608.31,587.37 1435.83,-312.36 2046.52,-442.88 2330.89,-293.7 284.37,149.18 -233.09,363.63 -769.19,307.69 -536.1,-55.94 -1123.5,46.61 -1067.54,433.53 55.94,386.93 834.43,745.88 2913.6,139.85 C 8915.62,8499.47 10519.3,7287.4 10962.1,6779.26" /><path
         id="path152"
         style="fill:#fafdfd;fill-opacity:1;fill-rule:nonzero;stroke:none"
         d="m 3594.99,8228.02 c 0,0 -310.03,62.92 -664.32,-23.33 -354.29,-86.23 -794.82,-240.07 -946.33,-128.2 -151.53,111.88 -44.29,310.01 477.82,361.3 522.13,51.28 1132.83,-209.77 1132.83,-209.77 z m -333.33,-876.43 c 0,0 -818.14,-86.23 -1114.17,-268.03 -296.02,-181.82 -330.99,-447.54 -132.86,-522.13 198.12,-74.57 438.2,181.82 594.38,319.34 156.17,137.53 652.65,470.82 652.65,470.82 z m 3118.74,226.1 c 0,0 -445.19,67.57 -783.18,-11.67 -338,-79.24 -510.46,-202.8 -491.82,-349.61 18.65,-146.86 303.02,-44.31 477.82,86.23 174.83,130.53 515.12,200.45 797.18,275.05 z m 321.62,1421.85 c -388.14,103.5 -2156.95,468.17 -2375.18,65.27 -208.74,-385.37 2133.21,-68.63 2375.18,-65.27" /><g
         transform="scale(1.00278)"
         id="g154"><path
           id="path156"
           style="fill:#beeaf6;fill-opacity:1;fill-rule:nonzero;stroke:none"
           d="m 16300,6213.63 c 0,0 -2684.7,-518.26 -4034.8,135.79 -1350.1,654.18 -1454.5,1805.72 -1124.2,2111.26 330.4,305.53 811.8,-32.97 979.8,-834.38 168,-801.43 570.8,-1037.66 829.5,-1048.3 258.8,-10.61 282.3,283.32 -43.5,384.02 -325.8,100.65 -468,161.56 -484.7,344.96 -16.8,183.39 277.8,435.74 921.2,-207.78 643.6,-643.57 1019,-745.3 1530.1,-826.57 511,-81.26 470.3,119.3 60.8,212.93 -409.5,93.71 -588.6,37.61 -717.4,242.21 -128.7,204.57 175.8,411.47 845.3,-8.45 669.5,-419.97 1237.9,-505.69 1237.9,-505.69 v 0" /></g><path
         id="path158"
         style="fill:#fafdfd;fill-opacity:1;fill-rule:nonzero;stroke:none"
         d="m 12151.7,6652.33 c 0,0 -666.7,363.59 -876.4,853.1 -209.8,489.47 -37.3,792.5 144.5,694.6 181.8,-97.89 312.3,-1118.84 731.9,-1547.7" /><g
         transform="scale(1.16649)"
         id="g160"><path
           id="path162"
           style="fill:#75c9f1;fill-opacity:1;fill-rule:nonzero;stroke:none"
           d="m 16300,2505.64 c 0,0 -323.7,-731.34 -1139,-947.12 -815.2,-215.77 -1322.8,-12 -1390.7,239.78 -67.9,251.78 347.7,179.86 675.3,43.98 327.8,-135.88 521.6,4.03 489.6,137.85 -32,133.9 -309.7,6 -443.6,155.85 -133.9,149.85 83.9,399.66 573.5,171.88 489.6,-227.77 725.3,-195.88 1234.9,197.78 v 0" /></g><path
         id="path164"
         style="fill:#fafdfd;fill-opacity:1;fill-rule:nonzero;stroke:none"
         d="m 359.785,5396 c 0,0 978.965,554.7 2214.325,456.8 1235.38,-97.9 2041.87,-564 2041.87,-564 0,0 -2027.87,727.21 -4256.195,107.2" /><path
         id="path166"
         style="fill:#ffffff;fill-opacity:1;fill-rule:nonzero;stroke:none"
         d="m 8089.03,4323.8 c 0,0 731.89,1025.6 1375.21,1165.5 643.36,139.8 1039.56,-18.7 1659.56,-480.2 620.1,-461.6 801.9,-561.8 1188.8,-571.1 386.9,-9.3 594.4,100.2 594.4,100.2 0,0 -296,-214.4 -673.7,-230.7 -377.6,-16.3 -790.1,228.4 -1109.5,543 -319.3,314.7 -718.4,591.6 -1237.66,601.4 -519.23,9.9 -983.75,-261 -1797.11,-1128.1" /><path
         id="path168"
         style="fill:#beeaf6;fill-opacity:1;fill-rule:nonzero;stroke:none"
         d="m 6082.2,3382.1 c 0,0 284.37,254.1 365.96,589.7 81.57,335.6 160.83,706.3 382.26,676 221.44,-30.3 179.49,-792.5 -748.22,-1265.7" /><g
         transform="scale(1.03251)"
         id="g170"><path
           id="path172"
           style="fill:#ffffff;fill-opacity:1;fill-rule:nonzero;stroke:none"
           d="m 16182.6,11057.2 c 64.8,0 117.4,-52.5 117.4,-117.4 0,-64.8 -52.6,-117.3 -117.4,-117.3 -64.8,0 -117.4,52.5 -117.4,117.3 0,64.9 52.6,117.4 117.4,117.4" /></g><path
         id="path174"
         style="fill:#ffffff;fill-opacity:1;fill-rule:nonzero;stroke:none"
         d="m 16004.9,11178.9 c 17.9,0 32.6,-14.6 32.6,-32.6 0,-18 -14.7,-32.6 -32.6,-32.6 -18.1,0 -32.7,14.6 -32.7,32.6 0,18 14.6,32.6 32.7,32.6" /><path
         id="path176"
         style="fill:#ffffff;fill-opacity:1;fill-rule:nonzero;stroke:none"
         d="m 15482.7,11109 c 25.8,0 46.6,-20.9 46.6,-46.6 0,-25.7 -20.8,-46.6 -46.6,-46.6 -25.7,0 -46.6,20.9 -46.6,46.6 0,25.7 20.9,46.6 46.6,46.6" /><path
         id="path178"
         style="fill:#ffffff;fill-opacity:1;fill-rule:nonzero;stroke:none"
         d="m 16077,10689.5 c 58,0 104.9,-47 104.9,-104.9 0,-58 -46.9,-104.9 -104.9,-104.9 -57.9,0 -104.9,46.9 -104.9,104.9 0,57.9 47,104.9 104.9,104.9" /><g
         transform="scale(1.05939)"
         id="g180"><path
           id="path182"
           style="fill:#ffffff;fill-opacity:1;fill-rule:nonzero;stroke:none"
           d="m 16223.1,11229.9 c 42.5,0 76.9,-34.5 76.9,-77 0,-42.6 -34.4,-77 -76.9,-77 -42.6,0 -77.1,34.4 -77.1,77 0,42.5 34.5,77 77.1,77" /></g><g
         transform="scale(1.06626)"
         id="g184"><path
           id="path186"
           style="fill:#ffffff;fill-opacity:1;fill-rule:nonzero;stroke:none"
           d="m 16225.7,10226.3 c 41,0 74.3,-33.3 74.3,-74.3 0,-41.1 -33.3,-74.3 -74.3,-74.3 -41.1,0 -74.4,33.2 -74.4,74.3 0,41 33.3,74.3 74.4,74.3" /></g><path
         id="path188"
         style="fill:#ffffff;fill-opacity:1;fill-rule:nonzero;stroke:none"
         d="m 14634.3,12363 c 23.2,0 42,-18.8 42,-41.9 0,-23.2 -18.8,-42 -42,-42 -23.2,0 -41.9,18.8 -41.9,42 0,23.1 18.7,41.9 41.9,41.9" /><path
         id="path190"
         style="fill:#ffffff;fill-opacity:1;fill-rule:nonzero;stroke:none"
         d="m 14377.9,11449.3 c 66.9,0 121.2,-54.2 121.2,-121.2 0,-66.9 -54.3,-121.2 -121.2,-121.2 -67,0 -121.2,54.3 -121.2,121.2 0,67 54.2,121.2 121.2,121.2" /><path
         id="path192"
         style="fill:#ffffff;fill-opacity:1;fill-rule:nonzero;stroke:none"
         d="m 14294,10293.2 c 46.3,0 83.9,-37.6 83.9,-83.9 0,-46.4 -37.6,-83.9 -83.9,-83.9 -46.4,0 -84,37.5 -84,83.9 0,46.3 37.6,83.9 84,83.9" /><g
         transform="scale(1.1166)"
         id="g194"><path
           id="path196"
           style="fill:#ffffff;fill-opacity:1;fill-rule:nonzero;stroke:none"
           d="m 16212.3,10804.8 c 48.4,0 87.7,-39.2 87.7,-87.7 0,-48.4 -39.3,-87.6 -87.7,-87.6 -48.4,0 -87.7,39.2 -87.7,87.6 0,48.5 39.3,87.7 87.7,87.7" /></g><g
         transform="scale(1.07713)"
         id="g198"><path
           id="path200"
           style="fill:#ffffff;fill-opacity:1;fill-rule:nonzero;stroke:none"
           d="m 16191.8,12715.6 c 59.7,0 108.2,-48.5 108.2,-108.2 0,-59.8 -48.5,-108.2 -108.2,-108.2 -59.7,0 -108.2,48.4 -108.2,108.2 0,59.7 48.5,108.2 108.2,108.2" /></g><g
         transform="scale(1.14977)"
         id="g202"><path
           id="path204"
           style="fill:#ffffff;fill-opacity:1;fill-rule:nonzero;stroke:none"
           d="m 16247.3,11352.7 c 29.1,0 52.7,-23.7 52.7,-52.8 0,-29.1 -23.6,-52.7 -52.7,-52.7 -29.1,0 -52.7,23.6 -52.7,52.7 0,29.1 23.6,52.8 52.7,52.8" /></g><g
         transform="scale(1.16693)"
         id="g206"><path
           id="path208"
           style="fill:#ffffff;fill-opacity:1;fill-rule:nonzero;stroke:none"
           d="m 16188.2,10163.1 c 61.8,0 111.8,-50.1 111.8,-111.9 0,-61.75 -50,-111.84 -111.8,-111.84 -61.8,0 -111.9,50.09 -111.9,111.84 0,61.8 50.1,111.9 111.9,111.9" /></g><g
         transform="scale(1.22127)"
         id="g210"><path
           id="path212"
           style="fill:#ffffff;fill-opacity:1;fill-rule:nonzero;stroke:none"
           d="m 16235.1,9955.13 c 35.8,0 64.9,-29.05 64.9,-64.89 0,-35.84 -29.1,-64.89 -64.9,-64.89 -35.8,0 -64.9,29.05 -64.9,64.89 0,35.84 29.1,64.89 64.9,64.89" /></g><g
         transform="scale(1.19267)"
         id="g214"><path
           id="path216"
           style="fill:#ffffff;fill-opacity:1;fill-rule:nonzero;stroke:none"
           d="m 16264.8,9365.18 c 19.4,0 35.2,-15.75 35.2,-35.18 0,-19.42 -15.8,-35.19 -35.2,-35.19 -19.4,0 -35.1,15.77 -35.1,35.19 0,19.43 15.7,35.18 35.1,35.18" /></g><g
         transform="scale(1.28991)"
         id="g218"><path
           id="path220"
           style="fill:#ffffff;fill-opacity:1;fill-rule:nonzero;stroke:none"
           d="m 16206,8970.04 c 51.9,0 94,-42.05 94,-93.95 0,-51.89 -42.1,-93.97 -94,-93.97 -51.8,0 -93.9,42.08 -93.9,93.97 0,51.9 42.1,93.95 93.9,93.95" /></g><g
         transform="scale(1.26989)"
         id="g222"><path
           id="path224"
           style="fill:#ffffff;fill-opacity:1;fill-rule:nonzero;stroke:none"
           d="m 16263.3,9720.82 c 20.2,0 36.7,-16.42 36.7,-36.7 0,-20.27 -16.5,-36.72 -36.7,-36.72 -20.2,0 -36.7,16.45 -36.7,36.72 0,20.28 16.5,36.7 36.7,36.7" /></g><g
         transform="scale(1.26245)"
         id="g226"><path
           id="path228"
           style="fill:#ffffff;fill-opacity:1;fill-rule:nonzero;stroke:none"
           d="m 16252,10560.9 c 26.5,0 48,-21.5 48,-48 0,-26.5 -21.5,-48 -48,-48 -26.5,0 -48,21.5 -48,48 0,26.5 21.5,48 48,48" /></g><g
         transform="scale(1.27675)"
         id="g230"><path
           id="path232"
           style="fill:#ffffff;fill-opacity:1;fill-rule:nonzero;stroke:none"
           d="m 16121.1,11165.6 c 98.9,0 178.9,-80.1 178.9,-178.9 0,-98.8 -80,-178.9 -178.9,-178.9 -98.8,0 -178.9,80.1 -178.9,178.9 0,98.8 80.1,178.9 178.9,178.9" /></g><g
         transform="scale(1.33338)"
         id="g234"><path
           id="path236"
           style="fill:#ffffff;fill-opacity:1;fill-rule:nonzero;stroke:none"
           d="m 16233.6,10796.3 c 36.6,0 66.4,-29.7 66.4,-66.4 0,-36.7 -29.8,-66.5 -66.4,-66.5 -36.7,0 -66.4,29.8 -66.4,66.5 0,36.7 29.7,66.4 66.4,66.4" /></g><g
         transform="scale(1.37571)"
         id="g238"><path
           id="path240"
           style="fill:#ffffff;fill-opacity:1;fill-rule:nonzero;stroke:none"
           d="m 16222.1,10098.2 c 43.1,0 77.9,-34.9 77.9,-78 0,-43.02 -34.8,-77.9 -77.9,-77.9 -43.1,0 -77.9,34.88 -77.9,77.9 0,43.1 34.8,78 77.9,78" /></g><g
         transform="scale(1.30536)"
         id="g242"><path
           id="path244"
           style="fill:#ffffff;fill-opacity:1;fill-rule:nonzero;stroke:none"
           d="m 16260.7,10528.1 c 21.8,0 39.3,-17.6 39.3,-39.3 0,-21.7 -17.5,-39.3 -39.3,-39.3 -21.6,0 -39.2,17.6 -39.2,39.3 0,21.7 17.6,39.3 39.2,39.3" /></g><g
         transform="scale(1.42262)"
         id="g246"><path
           id="path248"
           style="fill:#ffffff;fill-opacity:1;fill-rule:nonzero;stroke:none"
           d="m 16198.4,9063.89 c 56.1,0 101.6,-45.48 101.6,-101.58 0,-56.11 -45.5,-101.58 -101.6,-101.58 -56.1,0 -101.5,45.47 -101.5,101.58 0,56.1 45.4,101.58 101.5,101.58" /></g><g
         transform="scale(1.47581)"
         id="g250"><path
           id="path252"
           style="fill:#ffffff;fill-opacity:1;fill-rule:nonzero;stroke:none"
           d="m 16161,7694.83 c 76.7,0 139,-62.23 139,-138.98 0,-76.78 -62.3,-139.01 -139,-139.01 -76.8,0 -139,62.23 -139,139.01 0,76.75 62.2,138.98 139,138.98" /></g><g
         transform="scale(1.43806)"
         id="g254"><path
           id="path256"
           style="fill:#ffffff;fill-opacity:1;fill-rule:nonzero;stroke:none"
           d="m 16267.6,7417.07 c 17.9,0 32.4,-14.52 32.4,-32.42 0,-17.91 -14.5,-32.41 -32.4,-32.41 -17.9,0 -32.4,14.5 -32.4,32.41 0,17.9 14.5,32.42 32.4,32.42" /></g><g
         transform="scale(1.42375)"
         id="g258"><path
           id="path260"
           style="fill:#ffffff;fill-opacity:1;fill-rule:nonzero;stroke:none"
           d="m 16247.6,6954.58 c 28.9,0 52.4,-23.45 52.4,-52.39 0,-28.93 -23.5,-52.39 -52.4,-52.39 -28.9,0 -52.3,23.46 -52.3,52.39 0,28.94 23.4,52.39 52.3,52.39" /></g><g
         transform="scale(1.42547)"
         id="g262"><path
           id="path264"
           style="fill:#ffffff;fill-opacity:1;fill-rule:nonzero;stroke:none"
           d="m 16139.8,6115.54 c 88.4,0 160.2,-71.75 160.2,-160.24 0,-88.51 -71.8,-160.27 -160.2,-160.27 -88.6,0 -160.3,71.76 -160.3,160.27 0,88.49 71.7,160.24 160.3,160.24" /></g><g
         transform="scale(1.47523)"
         id="g266"><path
           id="path268"
           style="fill:#ffffff;fill-opacity:1;fill-rule:nonzero;stroke:none"
           d="m 16205.2,6244.23 c 52.4,0 94.8,-42.46 94.8,-94.82 0,-52.35 -42.4,-94.79 -94.8,-94.79 -52.4,0 -94.7,42.44 -94.7,94.79 0,52.36 42.3,94.82 94.7,94.82" /></g><g
         transform="scale(1.41747)"
         id="g270"><path
           id="path272"
           style="fill:#ffffff;fill-opacity:1;fill-rule:nonzero;stroke:none"
           d="m 16257.2,6492.08 c 23.6,0 42.8,-19.13 42.8,-42.74 0,-23.61 -19.2,-42.76 -42.8,-42.76 -23.6,0 -42.8,19.15 -42.8,42.76 0,23.61 19.2,42.74 42.8,42.74" /></g><g
         transform="scale(1.48153)"
         id="g274"><path
           id="path276"
           style="fill:#ffffff;fill-opacity:1;fill-rule:nonzero;stroke:none"
           d="m 16265.4,6828.12 c 19.1,0 34.6,-15.49 34.6,-34.6 0,-19.12 -15.5,-34.61 -34.6,-34.61 -19.1,0 -34.7,15.49 -34.7,34.61 0,19.11 15.6,34.6 34.7,34.6" /></g><g
         transform="scale(1.52271)"
         id="g278"><path
           id="path280"
           style="fill:#ffffff;fill-opacity:1;fill-rule:nonzero;stroke:none"
           d="m 16238.8,6263.83 c 33.8,0 61.2,-27.42 61.2,-61.23 0,-33.83 -27.4,-61.23 -61.2,-61.23 -33.8,0 -61.2,27.4 -61.2,61.23 0,33.81 27.4,61.23 61.2,61.23" /></g><g
         transform="scale(1.21612)"
         id="g282"><path
           id="path284"
           style="fill:#ffffff;fill-opacity:1;fill-rule:nonzero;stroke:none"
           d="m 16196.6,8226.29 c 57.1,0 103.4,-46.35 103.4,-103.5 0,-57.16 -46.3,-103.51 -103.4,-103.51 -57.3,0 -103.7,46.35 -103.7,103.51 0,57.15 46.4,103.5 103.7,103.5" /></g><g
         transform="scale(1.1595)"
         id="g286"><path
           id="path288"
           style="fill:#ffffff;fill-opacity:1;fill-rule:nonzero;stroke:none"
           d="m 16263.8,8917.45 c 19.9,0 36.2,-16.19 36.2,-36.17 0,-19.99 -16.3,-36.2 -36.2,-36.2 -20,0 -36.2,16.21 -36.2,36.2 0,19.98 16.2,36.17 36.2,36.17" /></g><g
         transform="scale(1.14806)"
         id="g290"><path
           id="path292"
           style="fill:#ffffff;fill-opacity:1;fill-rule:nonzero;stroke:none"
           d="m 16145.7,8632.81 c 85.2,0 154.3,-69.08 154.3,-154.31 0,-85.2 -69.1,-154.29 -154.3,-154.29 -85.2,0 -154.3,69.09 -154.3,154.29 0,85.23 69.1,154.31 154.3,154.31" /></g><g
         transform="scale(1.13491)"
         id="g294"><path
           id="path296"
           style="fill:#ffffff;fill-opacity:1;fill-rule:nonzero;stroke:none"
           d="m 16201.4,6596.89 c 54.4,0 98.6,-44.16 98.6,-98.59 0,-54.46 -44.2,-98.61 -98.6,-98.61 -54.5,0 -98.6,44.15 -98.6,98.61 0,54.43 44.1,98.59 98.6,98.59" /></g><g
         transform="scale(1.06969)"
         id="g298"><path
           id="path300"
           style="fill:#ffffff;fill-opacity:1;fill-rule:nonzero;stroke:none"
           d="m 16225.9,6589.39 c 40.9,0 74.1,-33.16 74.1,-74.08 0,-40.91 -33.2,-74.08 -74.1,-74.08 -40.9,0 -74.1,33.17 -74.1,74.08 0,40.92 33.2,74.08 74.1,74.08" /></g><path
         id="path302"
         style="fill:#ffffff;fill-opacity:1;fill-rule:nonzero;stroke:none"
         d="m 15944.2,7272.38 c 169.9,0 307.7,-137.75 307.7,-307.67 0,-169.93 -137.8,-307.69 -307.7,-307.69 -169.9,0 -307.7,137.76 -307.7,307.69 0,169.92 137.8,307.67 307.7,307.67" /><path
         id="path304"
         style="fill:#ffffff;fill-opacity:1;fill-rule:nonzero;stroke:none"
         d="m 13683.3,7636.01 c 59.2,0 107.2,-48.03 107.2,-107.23 0,-59.21 -48,-107.2 -107.2,-107.2 -59.3,0 -107.3,47.99 -107.3,107.2 0,59.2 48,107.23 107.3,107.23" /><path
         id="path306"
         style="fill:#ffffff;fill-opacity:1;fill-rule:nonzero;stroke:none"
         d="m 12699.7,8008.95 c 30.8,0 55.9,-25.06 55.9,-55.93 0,-30.91 -25.1,-55.98 -55.9,-55.98 -30.9,0 -56,25.07 -56,55.98 0,30.87 25.1,55.93 56,55.93" /><path
         id="path308"
         style="fill:#ffffff;fill-opacity:1;fill-rule:nonzero;stroke:none"
         d="m 12079.6,8698.89 c 33.5,0 60.6,-27.14 60.6,-60.61 0,-33.48 -27.1,-60.6 -60.6,-60.6 -33.5,0 -60.6,27.12 -60.6,60.6 0,33.47 27.1,60.61 60.6,60.61" /><path
         id="path310"
         style="fill:#ffffff;fill-opacity:1;fill-rule:nonzero;stroke:none"
         d="m 10844.3,8885.36 c 82.3,0 149.1,-66.81 149.1,-149.18 0,-82.38 -66.8,-149.17 -149.1,-149.17 -82.4,0 -149.2,66.79 -149.2,149.17 0,82.37 66.8,149.18 149.2,149.18" /><path
         id="path312"
         style="fill:#ffffff;fill-opacity:1;fill-rule:nonzero;stroke:none"
         d="m 10298.8,8102.18 c 38.7,0 70,-31.31 70,-69.93 0,-38.61 -31.3,-69.94 -70,-69.94 -38.6,0 -69.9,31.33 -69.9,69.94 0,38.62 31.3,69.93 69.9,69.93" /><path
         id="path314"
         style="fill:#ffffff;fill-opacity:1;fill-rule:nonzero;stroke:none"
         d="m 10676.4,7598.73 c 41.2,0 74.6,-33.4 74.6,-74.6 0,-41.2 -33.4,-74.6 -74.6,-74.6 -41.2,0 -74.6,33.4 -74.6,74.6 0,41.2 33.4,74.6 74.6,74.6" /><path
         id="path316"
         style="fill:#ffffff;fill-opacity:1;fill-rule:nonzero;stroke:none"
         d="m 12834.8,8633.62 c 69.6,0 125.9,-56.34 125.9,-125.86 0,-69.53 -56.3,-125.87 -125.9,-125.87 -69.5,0 -125.9,56.34 -125.9,125.87 0,69.52 56.4,125.86 125.9,125.86" /><path
         id="path318"
         style="fill:#ffffff;fill-opacity:1;fill-rule:nonzero;stroke:none"
         d="m 11263.8,6806.21 c 51.5,0 93.3,-41.77 93.3,-93.21 0,-51.53 -41.8,-93.26 -93.3,-93.26 -51.5,0 -93.2,41.73 -93.2,93.26 0,51.44 41.7,93.21 93.2,93.21" /><path
         id="path320"
         style="fill:#ffffff;fill-opacity:1;fill-rule:nonzero;stroke:none"
         d="m 7935.32,9379.5 c 92.69,0 167.84,-75.13 167.84,-167.83 0,-92.69 -75.15,-167.82 -167.84,-167.82 -92.67,0 -167.81,75.13 -167.81,167.82 0,92.7 75.14,167.83 167.81,167.83" /><path
         id="path322"
         style="fill:#ffffff;fill-opacity:1;fill-rule:nonzero;stroke:none"
         d="m 9259.28,9155.75 c 66.93,0 121.2,-54.28 121.2,-121.21 0,-66.94 -54.27,-121.21 -121.2,-121.21 -66.95,0 -121.23,54.27 -121.23,121.21 0,66.93 54.28,121.21 121.23,121.21" /><path
         id="path324"
         style="fill:#ffffff;fill-opacity:1;fill-rule:nonzero;stroke:none"
         d="m 8643.91,8764.16 c 30.9,0 55.95,-25.06 55.95,-55.95 0,-30.9 -25.05,-55.93 -55.95,-55.93 -30.89,0 -55.94,25.03 -55.94,55.93 0,30.89 25.05,55.95 55.94,55.95" /><path
         id="path326"
         style="fill:#ffffff;fill-opacity:1;fill-rule:nonzero;stroke:none"
         d="m 9795.36,8531.07 c 43.77,0 79.26,-35.49 79.26,-79.26 0,-43.77 -35.49,-79.24 -79.26,-79.24 -43.75,0 -79.25,35.47 -79.25,79.24 0,43.77 35.5,79.26 79.25,79.26" /><path
         id="path328"
         style="fill:#ffffff;fill-opacity:1;fill-rule:nonzero;stroke:none"
         d="m 6448.22,10022.8 c 100.39,0 181.81,-81.37 181.81,-181.79 0,-100.4 -81.42,-181.79 -181.81,-181.79 -100.42,0 -181.81,81.39 -181.81,181.79 0,100.42 81.39,181.79 181.81,181.79" /><path
         id="path330"
         style="fill:#ffffff;fill-opacity:1;fill-rule:nonzero;stroke:none"
         d="m 7632.3,10050.8 c 43.77,0 79.25,-35.5 79.25,-79.26 0,-43.77 -35.48,-79.24 -79.25,-79.24 -43.76,0 -79.24,35.47 -79.24,79.24 0,43.76 35.48,79.26 79.24,79.26" /><path
         id="path332"
         style="fill:#ffffff;fill-opacity:1;fill-rule:nonzero;stroke:none"
         d="m 7096.2,9612.61 c 56.65,0 102.57,-45.92 102.57,-102.57 0,-56.65 -45.92,-102.55 -102.57,-102.55 -56.65,0 -102.57,45.9 -102.57,102.55 0,56.65 45.92,102.57 102.57,102.57" /><path
         id="path334"
         style="fill:#ffffff;fill-opacity:1;fill-rule:nonzero;stroke:none"
         d="m 2867.97,9948.24 c 187.94,0 340.3,-152.36 340.3,-340.32 0,-187.93 -152.36,-340.29 -340.3,-340.29 -187.95,0 -340.31,152.36 -340.31,340.29 0,187.96 152.36,340.32 340.31,340.32" /><path
         id="path336"
         style="fill:#ffffff;fill-opacity:1;fill-rule:nonzero;stroke:none"
         d="m 3996.12,9994.86 c 59.22,0 107.21,-48 107.21,-107.2 0,-59.22 -47.99,-107.24 -107.21,-107.24 -59.22,0 -107.21,48.02 -107.21,107.24 0,59.2 47.99,107.2 107.21,107.2" /><path
         id="path338"
         style="fill:#ffffff;fill-opacity:1;fill-rule:nonzero;stroke:none"
         d="m 3427.38,9053.18 c 43.77,0 79.25,-35.47 79.25,-79.24 0,-43.77 -35.48,-79.24 -79.25,-79.24 -43.77,0 -79.24,35.47 -79.24,79.24 0,43.77 35.47,79.24 79.24,79.24" /><path
         id="path340"
         style="fill:#ffffff;fill-opacity:1;fill-rule:nonzero;stroke:none"
         d="m 2742.1,9053.18 c 36.05,0 65.27,-29.22 65.27,-65.27 0,-36.04 -29.22,-65.24 -65.27,-65.24 -36.03,0 -65.24,29.2 -65.24,65.24 0,36.05 29.21,65.27 65.24,65.27" /><path
         id="path342"
         style="fill:#ffffff;fill-opacity:1;fill-rule:nonzero;stroke:none"
         d="m 4634.79,9827.03 c 56.64,0 102.55,-45.92 102.55,-102.55 0,-56.65 -45.91,-102.57 -102.55,-102.57 -56.65,0 -102.54,45.92 -102.54,102.57 0,56.63 45.89,102.55 102.54,102.55" /><path
         id="path344"
         style="fill:#ffffff;fill-opacity:1;fill-rule:nonzero;stroke:none"
         d="m 4425.01,6964.71 c 208.55,0 377.6,-169.09 377.6,-377.6 0,-208.56 -169.05,-377.6 -377.6,-377.6 -208.55,0 -377.6,169.04 -377.6,377.6 0,208.51 169.05,377.6 377.6,377.6" /><path
         id="path346"
         style="fill:#ffffff;fill-opacity:1;fill-rule:nonzero;stroke:none"
         d="m 5720.98,6647.72 c 59.2,0 107.2,-48.02 107.2,-107.26 0,-59.21 -48,-107.2 -107.2,-107.2 -59.22,0 -107.22,47.99 -107.22,107.2 0,59.24 48,107.26 107.22,107.26" /><path
         id="path348"
         style="fill:#ffffff;fill-opacity:1;fill-rule:nonzero;stroke:none"
         d="m 6844.47,6974.03 c 36.04,0 65.26,-29.22 65.26,-65.27 0,-36.05 -29.22,-65.22 -65.26,-65.22 -36.04,0 -65.26,29.17 -65.26,65.22 0,36.05 29.22,65.27 65.26,65.27" /><path
         id="path350"
         style="fill:#ffffff;fill-opacity:1;fill-rule:nonzero;stroke:none"
         d="m 6135.87,6927.38 c 30.91,0 55.94,-25.03 55.94,-55.9 0,-30.9 -25.03,-55.97 -55.94,-55.97 -30.89,0 -55.94,25.07 -55.94,55.97 0,30.87 25.05,55.9 55.94,55.9" /><path
         id="path352"
         style="fill:#ffffff;fill-opacity:1;fill-rule:nonzero;stroke:none"
         d="m 5334.04,6312.05 c 123.6,0 223.78,-100.17 223.78,-223.75 0,-123.6 -100.18,-223.8 -223.78,-223.8 -123.58,0 -223.75,100.2 -223.75,223.8 0,123.58 100.17,223.75 223.75,223.75" /><path
         id="path354"
         style="fill:#ffffff;fill-opacity:1;fill-rule:nonzero;stroke:none"
         d="m 7543.73,7393.59 c 25.76,0 46.61,-20.85 46.61,-46.61 0,-25.76 -20.85,-46.65 -46.61,-46.65 -25.74,0 -46.61,20.89 -46.61,46.65 0,25.76 20.87,46.61 46.61,46.61" /><path
         id="path356"
         style="fill:#ffffff;fill-opacity:1;fill-rule:nonzero;stroke:none"
         d="m 4658.1,7430.88 c 23.17,0 41.96,-18.78 41.96,-41.93 0,-23.19 -18.79,-41.97 -41.96,-41.97 -23.18,0 -41.97,18.78 -41.97,41.97 0,23.15 18.79,41.93 41.97,41.93" /><path
         id="path358"
         style="fill:#ffffff;fill-opacity:1;fill-rule:nonzero;stroke:none"
         d="m 1940.28,7626.68 c 61.79,0 111.9,-50.07 111.9,-111.88 0,-61.81 -50.11,-111.88 -111.9,-111.88 -61.77,0 -111.88,50.07 -111.88,111.88 0,61.81 50.11,111.88 111.88,111.88" /><path
         id="path360"
         style="fill:#ffffff;fill-opacity:1;fill-rule:nonzero;stroke:none"
         d="m 798.152,7925.03 c 177.649,0 321.658,-144.01 321.658,-321.65 0,-177.66 -144.009,-321.66 -321.658,-321.66 -177.644,0 -321.652,144 -321.652,321.66 0,177.64 144.008,321.65 321.652,321.65" /><path
         id="path362"
         style="fill:#ffffff;fill-opacity:1;fill-rule:nonzero;stroke:none"
         d="m 751.547,6451.92 c 84.945,0 153.824,-68.87 153.824,-153.83 0,-84.97 -68.879,-153.85 -153.824,-153.85 -84.965,0 -153.844,68.88 -153.844,153.85 0,84.96 68.879,153.83 153.844,153.83" /><path
         id="path364"
         style="fill:#ffffff;fill-opacity:1;fill-rule:nonzero;stroke:none"
         d="m 1432.16,6983.36 c 43.77,0 79.25,-35.47 79.25,-79.24 0,-43.77 -35.48,-79.25 -79.25,-79.25 -43.76,0 -79.26,35.48 -79.26,79.25 0,43.77 35.5,79.24 79.26,79.24" /><path
         id="path366"
         style="fill:#ffffff;fill-opacity:1;fill-rule:nonzero;stroke:none"
         d="m 1245.69,8931.97 c 90.11,0 163.15,-73.04 163.15,-163.15 0,-90.11 -73.04,-163.16 -163.15,-163.16 -90.11,0 -163.17,73.05 -163.17,163.16 0,90.11 73.06,163.15 163.17,163.15" /><path
         id="path368"
         style="fill:#ffffff;fill-opacity:1;fill-rule:nonzero;stroke:none"
         d="m 2066.17,9090.48 c 105.54,0 191.12,-85.58 191.12,-191.14 0,-105.54 -85.58,-191.13 -191.12,-191.13 -105.56,0 -191.14,85.59 -191.14,191.13 0,105.56 85.58,191.14 191.14,191.14" /><g
         transform="scale(1.32652)"
         id="g370"><path
           id="path372"
           style="fill:#ffffff;fill-opacity:1;fill-rule:nonzero;stroke:none"
           d="m 16120.8,5053.6 c 99,0 179.2,-80.26 179.2,-179.25 0,-98.99 -80.2,-179.22 -179.2,-179.22 -99,0 -179.2,80.23 -179.2,179.22 0,98.99 80.2,179.25 179.2,179.25" /></g><g
         transform="scale(1.23729)"
         id="g374"><path
           id="path376"
           style="fill:#ffffff;fill-opacity:1;fill-rule:nonzero;stroke:none"
           d="m 16239.8,5003.56 c 33.2,0 60.2,-27 60.2,-60.26 0,-33.32 -27,-60.29 -60.2,-60.29 -33.4,0 -60.4,26.97 -60.4,60.29 0,33.26 27,60.26 60.4,60.26" /></g><g
         transform="scale(1.27904)"
         id="g378"><path
           id="path380"
           style="fill:#ffffff;fill-opacity:1;fill-rule:nonzero;stroke:none"
           d="m 16245.3,4395.55 c 30.2,0 54.7,-24.47 54.7,-54.65 0,-30.18 -24.5,-54.65 -54.7,-54.65 -30.1,0 -54.6,24.47 -54.6,54.65 0,30.18 24.5,54.65 54.6,54.65" /></g><g
         transform="scale(1.2493)"
         id="g382"><path
           id="path384"
           style="fill:#ffffff;fill-opacity:1;fill-rule:nonzero;stroke:none"
           d="m 16232.8,5664.43 c 37.1,0 67.2,-30.05 67.2,-67.14 0,-37.1 -30.1,-67.19 -67.2,-67.19 -37.1,0 -67.1,30.09 -67.1,67.19 0,37.09 30,67.14 67.1,67.14" /></g><g
         transform="scale(1.43177)"
         id="g386"><path
           id="path388"
           style="fill:#ffffff;fill-opacity:1;fill-rule:nonzero;stroke:none"
           d="m 16192.6,4564.89 c 59.3,0 107.4,-48.11 107.4,-107.48 0,-59.32 -48.1,-107.43 -107.4,-107.43 -59.4,0 -107.5,48.11 -107.5,107.43 0,59.37 48.1,107.48 107.5,107.48" /></g><g
         transform="scale(1.36142)"
         id="g390"><path
           id="path392"
           style="fill:#ffffff;fill-opacity:1;fill-rule:nonzero;stroke:none"
           d="m 16279.4,5108.95 c 11.3,0 20.6,-9.2 20.6,-20.56 0,-11.37 -9.3,-20.56 -20.6,-20.56 -11.4,0 -20.5,9.19 -20.5,20.56 0,11.36 9.1,20.56 20.5,20.56" /></g><g
         transform="scale(1.37629)"
         id="g394"><path
           id="path396"
           style="fill:#ffffff;fill-opacity:1;fill-rule:nonzero;stroke:none"
           d="m 16225.5,4369.51 c 41.2,0 74.5,-33.35 74.5,-74.48 0,-41.2 -33.3,-74.55 -74.5,-74.55 -41.2,0 -74.6,33.35 -74.6,74.55 0,41.13 33.4,74.48 74.6,74.48" /></g><path
         id="path398"
         style="fill:#ffffff;fill-opacity:1;fill-rule:nonzero;stroke:none"
         d="m 15893,5333.1 c 54,0 97.9,-43.8 97.9,-97.9 0,-54.1 -43.9,-97.9 -97.9,-97.9 -54.2,0 -97.9,43.8 -97.9,97.9 0,54.1 43.7,97.9 97.9,97.9" /><g
         transform="scale(1.12861)"
         id="g400"><path
           id="path402"
           style="fill:#ffffff;fill-opacity:1;fill-rule:nonzero;stroke:none"
           d="m 16242.1,4849.31 c 31.9,0 57.9,-25.96 57.9,-57.86 0,-31.89 -26,-57.85 -57.9,-57.85 -31.9,0 -57.8,25.96 -57.8,57.85 0,31.9 25.9,57.86 57.8,57.86" /></g><g
         transform="scale(1.11145)"
         id="g404"><path
           id="path406"
           style="fill:#ffffff;fill-opacity:1;fill-rule:nonzero;stroke:none"
           d="m 16044.2,3414.19 c 141.3,0 255.8,-114.53 255.8,-255.79 0,-141.34 -114.5,-255.88 -255.8,-255.88 -141.3,0 -255.9,114.54 -255.9,255.88 0,141.26 114.6,255.79 255.9,255.79" /></g><g
         transform="scale(1.18753)"
         id="g408"><path
           id="path410"
           style="fill:#ffffff;fill-opacity:1;fill-rule:nonzero;stroke:none"
           d="m 16237.3,3179.8 c 34.6,0 62.7,-28.13 62.7,-62.82 0,-34.69 -28.1,-62.82 -62.7,-62.82 -34.8,0 -62.9,28.13 -62.9,62.82 0,34.69 28.1,62.82 62.9,62.82" /></g><g
         transform="scale(1.03709)"
         id="g412"><path
           id="path414"
           style="fill:#ffffff;fill-opacity:1;fill-rule:nonzero;stroke:none"
           d="m 16237,3236.45 c 34.8,0 63,-28.15 63,-62.96 0,-34.71 -28.2,-62.87 -63,-62.87 -34.7,0 -62.9,28.16 -62.9,62.87 0,34.81 28.2,62.96 62.9,62.96" /></g><g
         transform="scale(1.13604)"
         id="g416"><path
           id="path418"
           style="fill:#ffffff;fill-opacity:1;fill-rule:nonzero;stroke:none"
           d="m 16259,2757.55 c 22.7,0 41,-18.39 41,-41.01 0,-22.63 -18.3,-41.02 -41,-41.02 -22.6,0 -41,18.39 -41,41.02 0,22.62 18.4,41.01 41,41.01" /></g><g
         transform="scale(1.29163)"
         id="g420"><path
           id="path422"
           style="fill:#ffffff;fill-opacity:1;fill-rule:nonzero;stroke:none"
           d="m 16195.2,2699.76 c 58,0 104.8,-46.91 104.8,-104.67 0,-57.84 -46.8,-104.68 -104.8,-104.68 -57.7,0 -104.5,46.84 -104.5,104.68 0,57.76 46.8,104.67 104.5,104.67" /></g><g
         transform="scale(1.39802)"
         id="g424"><path
           id="path426"
           style="fill:#ffffff;fill-opacity:1;fill-rule:nonzero;stroke:none"
           d="m 16263.3,2054.12 c 20.2,0 36.7,-16.45 36.7,-36.69 0,-20.24 -16.5,-36.7 -36.7,-36.7 -20.2,0 -36.6,16.46 -36.6,36.7 0,20.24 16.4,36.69 36.6,36.69" /></g><g
         transform="scale(1.45522)"
         id="g428"><path
           id="path430"
           style="fill:#ffffff;fill-opacity:1;fill-rule:nonzero;stroke:none"
           d="m 16271.1,2799.85 c 16,0 28.9,-12.85 28.9,-28.79 0,-15.95 -12.9,-28.86 -28.9,-28.86 -15.9,0 -28.8,12.91 -28.8,28.86 0,15.94 12.9,28.79 28.8,28.79" /></g><g
         transform="scale(1.1921)"
         id="g432"><path
           id="path434"
           style="fill:#ffffff;fill-opacity:1;fill-rule:nonzero;stroke:none"
           d="m 16143.6,1267.01 c 86.4,0 156.4,-70.05 156.4,-156.37 0,-86.4 -70,-156.445 -156.4,-156.445 -86.4,0 -156.5,70.045 -156.5,156.445 0,86.32 70.1,156.37 156.5,156.37" /></g><g
         transform="scale(1.29334)"
         id="g436"><path
           id="path438"
           style="fill:#ffffff;fill-opacity:1;fill-rule:nonzero;stroke:none"
           d="m 16242.4,1247.23 c 31.9,0 57.6,-25.82 57.6,-57.68 0,-31.85 -25.7,-57.68 -57.6,-57.68 -31.9,0 -57.7,25.83 -57.7,57.68 0,31.86 25.8,57.68 57.7,57.68" /></g><g
         transform="scale(1.12861)"
         id="g440"><path
           id="path442"
           style="fill:#ffffff;fill-opacity:1;fill-rule:nonzero;stroke:none"
           d="m 16238,578.319 c 34.2,0 62,-27.73 62,-61.933 0,-34.289 -27.8,-62.023 -62,-62.023 -34.2,0 -62,27.734 -62,62.023 0,34.203 27.8,61.933 62,61.933" /></g><g
         transform="scale(1.41175)"
         id="g444"><path
           id="path446"
           style="fill:#ffffff;fill-opacity:1;fill-rule:nonzero;stroke:none"
           d="m 16194.3,673.633 c 58.4,0 105.7,-47.318 105.7,-105.684 0,-58.297 -47.3,-105.615 -105.7,-105.615 -58.3,0 -105.6,47.318 -105.6,105.615 0,58.366 47.3,105.684 105.6,105.684" /></g><g
         transform="scale(1.47181)"
         id="g448"><path
           id="path450"
           style="fill:#ffffff;fill-opacity:1;fill-rule:nonzero;stroke:none"
           d="m 16274.7,1210.01 c 14,0 25.3,-11.35 25.3,-25.41 0,-13.93 -11.3,-25.28 -25.3,-25.28 -14,0 -25.5,11.35 -25.5,25.28 0,14.06 11.5,25.41 25.5,25.41" /></g><g
         transform="scale(1.50842)"
         id="g452"><path
           id="path454"
           style="fill:#ffffff;fill-opacity:1;fill-rule:nonzero;stroke:none"
           d="m 16269.1,1304.28 c 17,0 30.9,-13.85 30.9,-30.96 0,-17.04 -13.9,-30.89 -30.9,-30.89 -17,0 -30.9,13.85 -30.9,30.89 0,17.11 13.9,30.96 30.9,30.96" /></g><g
         transform="scale(1.51757)"
         id="g456"><path
           id="path458"
           style="fill:#ffffff;fill-opacity:1;fill-rule:nonzero;stroke:none"
           d="m 16195.6,675.882 c 57.6,0 104.4,-46.785 104.4,-104.443 0,-57.722 -46.8,-104.443 -104.4,-104.443 -57.7,0 -104.5,46.721 -104.5,104.443 0,57.658 46.8,104.443 104.5,104.443" /></g><g
         transform="scale(1.0165)"
         id="g460"><path
           id="path462"
           style="fill:#ffffff;fill-opacity:1;fill-rule:nonzero;stroke:none"
           d="m 16199.1,2027.05 c 55.7,0 100.9,-45.16 100.9,-100.84 0,-55.78 -45.2,-100.93 -100.9,-100.93 -55.7,0 -100.9,45.15 -100.9,100.93 0,55.68 45.2,100.84 100.9,100.84" /></g><path
         id="path464"
         style="fill:#ffffff;fill-opacity:1;fill-rule:nonzero;stroke:none"
         d="m 13319.7,1799.5 c 59.2,0 107.2,-48 107.2,-107.2 0,-59.2 -48,-107.3 -107.2,-107.3 -59.2,0 -107.2,48.1 -107.2,107.3 0,59.2 48,107.2 107.2,107.2" /><path
         id="path466"
         style="fill:#ffffff;fill-opacity:1;fill-rule:nonzero;stroke:none"
         d="m 14158.8,1277.5 c 38.6,0 69.9,-31.4 69.9,-70 0,-38.6 -31.3,-69.9 -69.9,-69.9 -38.7,0 -69.9,31.3 -69.9,69.9 0,38.6 31.2,70 69.9,70" /><path
         id="path468"
         style="fill:#ffffff;fill-opacity:1;fill-rule:nonzero;stroke:none"
         d="m 15492.1,1435.9 c 74.6,0 135.2,-60.5 135.2,-135.2 0,-74.7 -60.6,-135.2 -135.2,-135.2 -74.7,0 -135.2,60.5 -135.2,135.2 0,74.7 60.5,135.2 135.2,135.2" /><path
         id="path470"
         style="fill:#ffffff;fill-opacity:1;fill-rule:nonzero;stroke:none"
         d="m 12326.8,3505.8 c 51.4,0 93.2,-41.8 93.2,-93.3 0,-51.5 -41.8,-93.2 -93.2,-93.2 -51.5,0 -93.3,41.7 -93.3,93.2 0,51.5 41.8,93.3 93.3,93.3" /><path
         id="path472"
         style="fill:#ffffff;fill-opacity:1;fill-rule:nonzero;stroke:none"
         d="m 14205.5,4624.6 c 43.7,0 79.2,-35.5 79.2,-79.3 0,-43.7 -35.5,-79.2 -79.2,-79.2 -43.8,0 -79.3,35.5 -79.3,79.2 0,43.8 35.5,79.3 79.3,79.3" /><path
         id="path474"
         style="fill:#ffffff;fill-opacity:1;fill-rule:nonzero;stroke:none"
         d="m 11236,5789.9 c 123.5,0 223.7,-100.1 223.7,-223.7 0,-123.6 -100.2,-223.8 -223.7,-223.8 -123.6,0 -223.8,100.2 -223.8,223.8 0,123.6 100.2,223.7 223.8,223.7" /><path
         id="path476"
         style="fill:#ffffff;fill-opacity:1;fill-rule:nonzero;stroke:none"
         d="m 9953.95,5109.4 c 18,0 32.63,-14.7 32.63,-32.7 0,-18 -14.63,-32.6 -32.63,-32.6 -18.03,0 -32.64,14.6 -32.64,32.6 0,18 14.61,32.7 32.64,32.7" /><path
         id="path478"
         style="fill:#ffffff;fill-opacity:1;fill-rule:nonzero;stroke:none"
         d="m 12266.1,5295.8 c 43.8,0 79.3,-35.4 79.3,-79.2 0,-43.8 -35.5,-79.3 -79.3,-79.3 -43.7,0 -79.2,35.5 -79.2,79.3 0,43.8 35.5,79.2 79.2,79.2" /><path
         id="path480"
         style="fill:#ffffff;fill-opacity:1;fill-rule:nonzero;stroke:none"
         d="m 11851.2,5808.6 c 25.8,0 46.7,-20.9 46.7,-46.6 0,-25.7 -20.9,-46.6 -46.7,-46.6 -25.7,0 -46.6,20.9 -46.6,46.6 0,25.7 20.9,46.6 46.6,46.6" /><path
         id="path482"
         style="fill:#ffffff;fill-opacity:1;fill-rule:nonzero;stroke:none"
         d="m 9716.17,6088.3 c 30.91,0 55.96,-25.04 55.96,-55.94 0,-30.87 -25.05,-55.96 -55.96,-55.96 -30.89,0 -55.94,25.09 -55.94,55.96 0,30.9 25.05,55.94 55.94,55.94" /><path
         id="path484"
         style="fill:#ffffff;fill-opacity:1;fill-rule:nonzero;stroke:none"
         d="m 7278.09,5631.5 c 141.6,0 256.39,-114.8 256.39,-256.4 0,-141.6 -114.79,-256.4 -256.39,-256.4 -141.62,0 -256.41,114.8 -256.41,256.4 0,141.6 114.79,256.4 256.41,256.4" /><path
         id="path486"
         style="fill:#ffffff;fill-opacity:1;fill-rule:nonzero;stroke:none"
         d="m 8252.37,5743.3 c 25.75,0 46.63,-20.8 46.63,-46.6 0,-25.7 -20.88,-46.6 -46.63,-46.6 -25.74,0 -46.61,20.9 -46.61,46.6 0,25.8 20.87,46.6 46.61,46.6" /><path
         id="path488"
         style="fill:#ffffff;fill-opacity:1;fill-rule:nonzero;stroke:none"
         d="m 7599.75,4997.4 c 46.33,0 83.88,-37.5 83.88,-83.8 0,-46.4 -37.55,-83.9 -83.88,-83.9 -46.36,0 -83.93,37.5 -83.93,83.9 0,46.3 37.57,83.8 83.93,83.8" /><path
         id="path490"
         style="fill:#ffffff;fill-opacity:1;fill-rule:nonzero;stroke:none"
         d="m 8839.78,5985.8 c 46.33,0 83.9,-37.6 83.9,-84 0,-46.3 -37.57,-83.9 -83.9,-83.9 -46.35,0 -83.94,37.6 -83.94,83.9 0,46.4 37.59,84 83.94,84" /><path
         id="path492"
         style="fill:#ffffff;fill-opacity:1;fill-rule:nonzero;stroke:none"
         d="m 7842.14,3785.4 c 66.94,0 121.21,-54.3 121.21,-121.2 0,-67 -54.27,-121.2 -121.21,-121.2 -66.93,0 -121.18,54.2 -121.18,121.2 0,66.9 54.25,121.2 121.18,121.2" /><path
         id="path494"
         style="fill:#ffffff;fill-opacity:1;fill-rule:nonzero;stroke:none"
         d="m 10270.9,3990.5 c 115.9,0 209.8,-93.9 209.8,-209.8 0,-115.8 -93.9,-209.8 -209.8,-209.8 -115.8,0 -209.7,94 -209.7,209.8 0,115.9 93.9,209.8 209.7,209.8" /><path
         id="path496"
         style="fill:#ffffff;fill-opacity:1;fill-rule:nonzero;stroke:none"
         d="m 10145.1,2825.1 c 30.9,0 55.9,-25.1 55.9,-55.9 0,-30.9 -25,-56 -55.9,-56 -30.9,0 -56,25.1 -56,56 0,30.8 25.1,55.9 56,55.9" /><path
         id="path498"
         style="fill:#ffffff;fill-opacity:1;fill-rule:nonzero;stroke:none"
         d="m 11016.8,3086.1 c 12.9,0 23.3,-10.4 23.3,-23.3 0,-12.8 -10.4,-23.3 -23.3,-23.3 -12.9,0 -23.3,10.5 -23.3,23.3 0,12.9 10.4,23.3 23.3,23.3" /><path
         id="path500"
         style="fill:#ffffff;fill-opacity:1;fill-rule:nonzero;stroke:none"
         d="m 9250,2396.2 c 72.11,0 130.54,-58.4 130.54,-130.5 0,-72.1 -58.43,-130.6 -130.54,-130.6 -72.08,0 -130.52,58.5 -130.52,130.6 0,72.1 58.44,130.5 130.52,130.5" /><path
         id="path502"
         style="fill:#ffffff;fill-opacity:1;fill-rule:nonzero;stroke:none"
         d="m 2192.1,5137.4 c 175.07,0 316.99,-142 316.99,-317 0,-175.1 -141.92,-317 -316.99,-317 -175.07,0 -317.01,141.9 -317.01,317 0,175 141.94,317 317.01,317" /><path
         id="path504"
         style="fill:#ffffff;fill-opacity:1;fill-rule:nonzero;stroke:none"
         d="m 3833.03,4773.7 c 30.91,0 55.95,-25 55.95,-56 0,-30.9 -25.04,-55.9 -55.95,-55.9 -30.89,0 -55.94,25 -55.94,55.9 0,31 25.05,56 55.94,56" /><path
         id="path506"
         style="fill:#ffffff;fill-opacity:1;fill-rule:nonzero;stroke:none"
         d="m 4849.3,5062.7 c 66.93,0 121.2,-54.2 121.2,-121.2 0,-66.9 -54.27,-121.2 -121.2,-121.2 -66.95,0 -121.21,54.3 -121.21,121.2 0,67 54.26,121.2 121.21,121.2" /><path
         id="path508"
         style="fill:#ffffff;fill-opacity:1;fill-rule:nonzero;stroke:none"
         d="m 5916.84,5118.7 c 28.32,0 51.28,-23 51.28,-51.3 0,-28.3 -22.96,-51.3 -51.28,-51.3 -28.31,0 -51.27,23 -51.27,51.3 0,28.3 22.96,51.3 51.27,51.3" /><path
         id="path510"
         style="fill:#ffffff;fill-opacity:1;fill-rule:nonzero;stroke:none"
         d="m 616.406,3766.8 c 180.235,0 326.321,-146.1 326.321,-326.3 0,-180.2 -146.086,-326.3 -326.321,-326.3 -180.222,0 -326.328,146.1 -326.328,326.3 0,180.2 146.106,326.3 326.328,326.3" /><path
         id="path512"
         style="fill:#ffffff;fill-opacity:1;fill-rule:nonzero;stroke:none"
         d="m 1819.15,2508.1 c 56.63,0 102.55,-46 102.55,-102.6 0,-56.6 -45.92,-102.5 -102.55,-102.5 -56.65,0 -102.55,45.9 -102.55,102.5 0,56.6 45.9,102.6 102.55,102.6" /><path
         id="path514"
         style="fill:#ffffff;fill-opacity:1;fill-rule:nonzero;stroke:none"
         d="m 3777.09,3543 c 36.05,0 65.26,-29.2 65.26,-65.3 0,-36 -29.21,-65.2 -65.26,-65.2 -36.04,0 -65.25,29.2 -65.25,65.2 0,36.1 29.21,65.3 65.25,65.3" /><path
         id="path516"
         style="fill:#ffffff;fill-opacity:1;fill-rule:nonzero;stroke:none"
         d="m 3814.38,2620 c 25.75,0 46.64,-20.9 46.64,-46.6 0,-25.8 -20.89,-46.7 -46.64,-46.7 -25.74,0 -46.61,20.9 -46.61,46.7 0,25.7 20.87,46.6 46.61,46.6" /><path
         id="path518"
         style="fill:#ffffff;fill-opacity:1;fill-rule:nonzero;stroke:none"
         d="m 6224.52,2330.9 c 38.62,0 69.93,-31.3 69.93,-69.9 0,-38.7 -31.31,-69.9 -69.93,-69.9 -38.6,0 -69.91,31.2 -69.91,69.9 0,38.6 31.31,69.9 69.91,69.9" /><path
         id="path520"
         style="fill:#ffffff;fill-opacity:1;fill-rule:nonzero;stroke:none"
         d="m 6411,1510.5 c 38.62,0 69.93,-31.3 69.93,-70 0,-38.6 -31.31,-69.9 -69.93,-69.9 -38.63,0 -69.94,31.3 -69.94,69.9 0,38.7 31.31,70 69.94,70" /><path
         id="path522"
         style="fill:#ffffff;fill-opacity:1;fill-rule:nonzero;stroke:none"
         d="m 7380.63,1948.7 c 18.03,0 32.64,-14.6 32.64,-32.6 0,-18.1 -14.61,-32.7 -32.64,-32.7 -18.02,0 -32.62,14.6 -32.62,32.7 0,18 14.6,32.6 32.62,32.6" /><path
         id="path524"
         style="fill:#ffffff;fill-opacity:1;fill-rule:nonzero;stroke:none"
         d="m 588.434,1156.2 c 133.879,0 242.418,-108.6 242.418,-242.501 0,-133.797 -108.539,-242.398 -242.418,-242.398 -133.879,0 -242.399,108.601 -242.399,242.398 0,133.901 108.52,242.501 242.399,242.501" /><path
         id="path526"
         style="fill:#ffffff;fill-opacity:1;fill-rule:nonzero;stroke:none"
         d="m 2145.47,1296 c 61.8,0 111.88,-50.1 111.88,-111.9 0,-61.8 -50.08,-111.9 -111.88,-111.9 -61.79,0 -111.88,50.1 -111.88,111.9 0,61.8 50.09,111.9 111.88,111.9" /><path
         id="path528"
         style="fill:#ffffff;fill-opacity:1;fill-rule:nonzero;stroke:none"
         d="m 1763.21,867.102 c 20.6,0 37.28,-16.7 37.28,-37.301 0,-20.602 -16.68,-37.301 -37.28,-37.301 -20.6,0 -37.3,16.699 -37.3,37.301 0,20.601 16.7,37.301 37.3,37.301" /><path
         id="path530"
         style="fill:#ffffff;fill-opacity:1;fill-rule:nonzero;stroke:none"
         d="m 3851.8,1008.8 c 61.72,0 111.76,-50.101 111.76,-111.8 0,-61.699 -50.04,-111.801 -111.76,-111.801 -61.74,0 -111.78,50.102 -111.78,111.801 0,61.699 50.04,111.8 111.78,111.8" /><path
         id="path532"
         style="fill:#ffffff;fill-opacity:1;fill-rule:nonzero;stroke:none"
         d="m 3364.51,587.402 c 45.04,0 81.55,-36.504 81.55,-81.504 0,-45.097 -36.51,-81.597 -81.55,-81.597 -45.05,0 -81.56,36.5 -81.56,81.597 0,45 36.51,81.504 81.56,81.504" /><path
         id="path534"
         style="fill:#ffffff;fill-opacity:1;fill-rule:nonzero;stroke:none"
         d="m 5124.35,662 c 38.62,0 69.93,-31.199 69.93,-69.898 0,-38.602 -31.31,-69.903 -69.93,-69.903 -38.63,0 -69.92,31.301 -69.92,69.903 0,38.699 31.29,69.898 69.92,69.898" /><path
         id="path536"
         style="fill:#ffffff;fill-opacity:1;fill-rule:nonzero;stroke:none"
         d="m 7595.08,708.602 c 69.51,0 125.88,-56.301 125.88,-125.801 0,-69.602 -56.37,-125.903 -125.88,-125.903 -69.5,0 -125.87,56.301 -125.87,125.903 0,69.5 56.37,125.801 125.87,125.801" /><path
         id="path538"
         style="fill:#ffffff;fill-opacity:1;fill-rule:nonzero;stroke:none"
         d="m 9613.62,1193.5 c 56.65,0 102.57,-45.9 102.57,-102.6 0,-56.6 -45.92,-102.502 -102.57,-102.502 -56.63,0 -102.55,45.902 -102.55,102.502 0,56.7 45.92,102.6 102.55,102.6" /><path
         id="path540"
         style="fill:#ffffff;fill-opacity:1;fill-rule:nonzero;stroke:none"
         d="m 6704.55,991.699 c 66.89,0 121.09,-54.199 121.09,-121.097 0,-66.903 -54.2,-121.102 -121.09,-121.102 -66.88,0 -121.11,54.199 -121.11,121.102 0,66.898 54.23,121.097 121.11,121.097" /><path
         id="path542"
         style="fill:#ffffff;fill-opacity:1;fill-rule:nonzero;stroke:none"
         d="m 3151.12,1771.5 c 66.21,0 119.91,-53.7 119.91,-119.9 0,-66.2 -53.7,-119.9 -119.91,-119.9 -66.23,0 -119.9,53.7 -119.9,119.9 0,66.2 53.67,119.9 119.9,119.9" /><path
         id="path544"
         style="fill:#ffffff;fill-opacity:1;fill-rule:nonzero;stroke:none"
         d="m 736.688,1928.1 c 50.183,0 90.878,-40.7 90.878,-91 0,-50.1 -40.695,-90.8 -90.878,-90.8 -50.2,0 -90.895,40.7 -90.895,90.8 0,50.3 40.695,91 90.895,91" /><path
         id="path546"
         style="fill:#ffffff;fill-opacity:1;fill-rule:nonzero;stroke:none"
         d="m 11114.7,1566.5 c 46.4,0 83.9,-37.6 83.9,-84 0,-46.3 -37.5,-83.9 -83.9,-83.9 -46.3,0 -83.9,37.6 -83.9,83.9 0,46.4 37.6,84 83.9,84" /><path
         id="path548"
         style="fill:#ffffff;fill-opacity:1;fill-rule:nonzero;stroke:none"
         d="m 12005.6,2302.5 c 28,0 50.8,-22.7 50.8,-50.8 0,-28 -22.8,-50.7 -50.8,-50.7 -28.1,0 -50.8,22.7 -50.8,50.7 0,28.1 22.7,50.8 50.8,50.8" /><path
         id="path550"
         style="fill:#ffffff;fill-opacity:1;fill-rule:nonzero;stroke:none"
         d="m 13893.1,3515.1 c 56.6,0 102.6,-45.9 102.6,-102.6 0,-56.6 -46,-102.5 -102.6,-102.5 -56.6,0 -102.5,45.9 -102.5,102.5 0,56.7 45.9,102.6 102.5,102.6" /><path
         id="path552"
         style="fill:#ffffff;fill-opacity:1;fill-rule:nonzero;stroke:none"
         d="m 13249.8,3020.9 c 36.1,0 65.3,-29.3 65.3,-65.3 0,-36 -29.2,-65.3 -65.3,-65.3 -36,0 -65.2,29.3 -65.2,65.3 0,36 29.2,65.3 65.2,65.3" /><path
         id="path554"
         style="fill:#ffffff;fill-opacity:1;fill-rule:nonzero;stroke:none"
         d="m 10201,456.898 c 61.8,0 111.9,-50 111.9,-111.898 0,-61.699 -50.1,-111.801 -111.9,-111.801 -61.8,0 -111.9,50.102 -111.9,111.801 0,61.898 50.1,111.898 111.9,111.898" /><g
         transform="scale(1.36428)"
         id="g556"><path
           id="path558"
           style="fill:#ffffff;fill-opacity:1;fill-rule:nonzero;stroke:none"
           d="m 16221.4,6711.05 c 43.4,0 78.6,-35.18 78.6,-78.59 0,-43.4 -35.2,-78.58 -78.6,-78.58 -43.4,0 -78.6,35.18 -78.6,78.58 0,43.41 35.2,78.59 78.6,78.59" /></g><g
         transform="scale(1.29792)"
         id="g560"><path
           id="path562"
           style="fill:#ffffff;fill-opacity:1;fill-rule:nonzero;stroke:none"
           d="m 16278.5,6256.82 c 11.9,0 21.5,-9.64 21.5,-21.54 0,-11.92 -9.6,-21.55 -21.5,-21.55 -11.9,0 -21.6,9.63 -21.6,21.55 0,11.9 9.7,21.54 21.6,21.54" /></g><g
         transform="scale(1.19153)"
         id="g564"><path
           id="path566"
           style="fill:#ffffff;fill-opacity:1;fill-rule:nonzero;stroke:none"
           d="m 16288.3,5962.61 c 6.5,0 11.7,-5.29 11.7,-11.74 0,-6.51 -5.2,-11.75 -11.7,-11.75 -6.4,0 -11.7,5.24 -11.7,11.75 0,6.45 5.3,11.74 11.7,11.74" /></g><g
         transform="scale(1.29449)"
         id="g568"><path
           id="path570"
           style="fill:#ffffff;fill-opacity:1;fill-rule:nonzero;stroke:none"
           d="m 16148.7,3889.41 c 83.6,0 151.3,-67.75 151.3,-151.26 0,-83.58 -67.7,-151.26 -151.3,-151.26 -83.5,0 -151.2,67.68 -151.2,151.26 0,83.51 67.7,151.26 151.2,151.26" /></g><g
         transform="scale(1.37715)"
         id="g572"><path
           id="path574"
           style="fill:#ffffff;fill-opacity:1;fill-rule:nonzero;stroke:none"
           d="m 16257.7,3026.31 c 23.3,0 42.3,-18.95 42.3,-42.33 0,-23.38 -19,-42.41 -42.3,-42.41 -23.4,0 -42.4,19.03 -42.4,42.41 0,23.38 19,42.33 42.4,42.33" /></g><g
         transform="scale(1.48554)"
         id="g576"><path
           id="path578"
           style="fill:#ffffff;fill-opacity:1;fill-rule:nonzero;stroke:none"
           d="m 16243.5,3470.79 c 31.2,0 56.5,-25.31 56.5,-56.47 0,-31.24 -25.3,-56.48 -56.5,-56.48 -31.2,0 -56.5,25.24 -56.5,56.48 0,31.16 25.3,56.47 56.5,56.47" /></g><g
         transform="scale(1.53016)"
         id="g580"><path
           id="path582"
           style="fill:#ffffff;fill-opacity:1;fill-rule:nonzero;stroke:none"
           d="m 16190.3,4533.36 c 60.6,0 109.7,-49.08 109.7,-109.68 0,-60.57 -49.1,-109.68 -109.7,-109.68 -60.6,0 -109.7,49.11 -109.7,109.68 0,60.6 49.1,109.68 109.7,109.68" /></g><g
         transform="scale(1.4741)"
         id="g584"><path
           id="path586"
           style="fill:#ffffff;fill-opacity:1;fill-rule:nonzero;stroke:none"
           d="m 16274.7,4275.67 c 14,0 25.3,-11.33 25.3,-25.28 0,-14 -11.3,-25.33 -25.3,-25.33 -14,0 -25.3,11.33 -25.3,25.33 0,13.95 11.3,25.28 25.3,25.28" /></g><g
         transform="scale(1.49802)"
         id="g588"><path
           id="path590"
           style="fill:#ffffff;fill-opacity:1;fill-rule:nonzero;stroke:none"
           d="m 16275.6,3840.19 c 13.5,0 24.4,-10.95 24.4,-24.37 0,-13.48 -10.9,-24.36 -24.4,-24.36 -13.4,0 -24.3,10.88 -24.3,24.36 0,13.42 10.9,24.37 24.3,24.37" /></g><g
         transform="scale(1.51385)"
         id="g592"><path
           id="path594"
           style="fill:#ffffff;fill-opacity:1;fill-rule:nonzero;stroke:none"
           d="m 16135.8,2761.3 c 90.7,0 164.2,-73.52 164.2,-164.28 0,-90.7 -73.5,-164.22 -164.2,-164.22 -90.8,0 -164.3,73.52 -164.3,164.22 0,90.76 73.5,164.28 164.3,164.28" /></g></g></g></svg>